<?xml version="1.0" encoding="utf-8"?>
<!-- Generator: Adobe Illustrator 16.0.4, SVG Export Plug-In . SVG Version: 6.00 Build 0)  -->
<!DOCTYPE svg PUBLIC "-//W3C//DTD SVG 1.1//EN" "http://www.w3.org/Graphics/SVG/1.1/DTD/svg11.dtd">
<svg version="1.1" id="Layer_1" xmlns="http://www.w3.org/2000/svg" xmlns:xlink="http://www.w3.org/1999/xlink" x="0px" y="0px"
	 width="527.4px" height="164.2px" viewBox="0 0 527.4 164.2" style="enable-background:new 0 0 527.4 164.2;" xml:space="preserve"
	>
<style type="text/css">
<![CDATA[
	.st0{fill:#FFFFFF;}
]]>
</style>
<g>
	<path d="M147.4,116.8c4.2-4.8,9.5-6.4,15.6-5.1c3.9,0.8,6.3,3.5,7.3,7.3c0.9,3,0.7,6,0.1,9.3c-6.3,0-12.5,0-18.7,0
		c-0.6,2.9,0.6,5.4,3,6.5c2.3,1.1,5.4,0.3,7-2c0.8-1.2,1.6-1.5,2.9-1.1c1.5,0.4,3.1,0.5,4.6,0.8c-1.9,5.9-9.3,9.5-16,7.8
		c-7.8-2-10.4-8.5-8-19.7c-13,20.5-31.3,33-55.3,36.3c-18.9,2.6-36.6-1.7-52.3-12.5c-33.5-23.1-42-66-23.5-99
		c20-35.8,64.4-49.3,100.7-30.4c18.5,9.6,31.1,24.5,37.4,44.3C158.5,78.8,156.6,98.1,147.4,116.8z M99.4,12.9
		c-6.2,0-12,0.1-17.8-0.1c-1.9-0.1-2.7,0.5-3.1,2.4C69.3,51.9,60,88.7,50.7,125.5c-1.1,4.5-2.3,9.1-3.5,13.9c0.9,0,1.6,0,2.3,0
		c5.3,0,10.5-0.1,15.8,0c1.9,0,2.5-0.6,3-2.3c9-36.2,18.1-72.3,27.2-108.5C96.8,23.4,98.1,18.3,99.4,12.9z M79.9,140
		c1.9,0,3.5-0.1,5.1,0c2,0.2,2.8-0.5,3.2-2.5c1-5,2.1-9.9,3.4-14.8c0.8-3,3-5,6.1-5.8c2.8-0.7,4.4,0.7,4,3.6
		c-0.3,2.4-0.9,4.8-1.3,7.2c-0.8,4-1.7,8-2.5,12.2c2.6,0,5.1,0,7.5,0c0.1-0.2,0.2-0.4,0.3-0.5c0.8-3.9,1.7-7.7,2.4-11.6
		c0.6-3.1,1.3-6.1,1.5-9.2c0.3-4.1-2.3-6.9-6.4-7.3c-3.3-0.3-6.3,0.7-9,2.7c-0.5,0.4-1,0.7-1.8,1.3c0.2-1.4,0.3-2.3,0.5-3.5
		c-2.2,0-4.2-0.1-6.2,0c-0.4,0-1.1,0.6-1.2,1C83.7,121.8,81.8,130.7,79.9,140z M114.8,111.9c0.1,0.8,0.2,1.3,0.3,1.8
		c1.4,7.1,2.9,14.2,4.3,21.3c1,4.9,1,4.9,5.9,4.9c1.2,0,1.9-0.3,2.5-1.4c5.1-8.4,10.3-16.8,15.4-25.1c0.3-0.5,0.5-0.9,0.8-1.7
		c-2.4,0-4.5,0.1-6.6,0c-1.2-0.1-1.8,0.4-2.3,1.4c-3,5.3-6,10.5-9.1,15.8c-0.2,0.4-0.5,0.7-0.9,1.3c-1-6.3-2-12.3-2.9-18.3
		C119.7,111.9,117.4,111.9,114.8,111.9z M152.3,123.5c3.9,0,7.8,0,11.6,0c0.3-4-1.2-6.5-4.3-6.8C156,116.2,153,119,152.3,123.5z"/>
	<path d="M276.6,150.5c0.2-1.9,0.4-3.6,0.7-5.6c4.1,1.2,6.4-0.7,8-4.1c0.2-0.5,0.4-1.1,0.3-1.6c-1.5-8.6-3-17.3-4.5-25.9
		c0-0.1-0.1-0.2-0.4-0.6c-0.9,1.9-1.8,3.6-2.6,5.3c-5.2-0.7-8.6,2.2-10,7.3c-1.2,4.1-2,8.4-3,12.6c-0.2,0.7-0.3,1.3-0.5,2
		c-2.5,0-4.9,0-7.5,0c2-9.4,3.9-18.6,5.8-27.9c2.3,0,4.6,0,7,0c-0.3,1.5-0.5,2.9-0.8,4.4c1.7-1.4,3.2-3,5-4.1
		c1.2-0.7,2.8-0.8,4.3-0.8c2.7,0,5.3,0.4,8,0.4c1.6,0,2.1,0.5,2.3,2.1c0.7,6.3,1.6,12.5,2.5,19.2c0.7-1.7,1.2-3.1,1.8-4.4
		c2.7-5.3,5.5-10.5,8.3-15.8c0.2-0.4,0.7-1,1.2-1c2.4-0.1,4.7,0,7.3,0c-0.3,0.7-0.5,1-0.7,1.4c-5.9,10.5-11.9,21-17.8,31.6
		c-0.3,0.5-0.7,1.1-1,1.6c-2.5,4.3-6.3,5.4-10.9,4.7C278.5,151,277.7,150.7,276.6,150.5z"/>
	<path d="M439.8,139.9c2.7-12.7,5.3-25.2,7.9-37.6c0.1-0.4,0.7-1.1,1.1-1.1c2.2-0.1,4.4-0.1,6.7-0.1c-1.4,6.6-2.7,13.1-4.2,20.1
		c2.5-2.4,4.9-4.3,6.8-6.6c2-2.4,4.4-3.3,7.4-2.9c1.6,0.2,3.3,0,5.5,0c-3.6,3.2-6.6,6.1-9.8,8.8c-1.1,1-1.5,1.8-0.9,3.3
		c1.9,5.2,3.6,10.5,5.4,16c-2.4,0-4.6,0.1-6.7-0.1c-0.4,0-1-0.8-1.2-1.3c-1.2-3.8-2.3-7.5-3.5-11.5c-2.7,2.4-5.6,4.1-6,8.2
		c-0.5,4.7-0.8,4.7-5.7,4.7C441.8,139.9,440.9,139.9,439.8,139.9z"/>
	<path d="M240.1,111.3c10.4-0.1,15.5,6,14.2,15.4c-1.4,9.9-10.8,16.1-20.4,13.3c-4.7-1.4-7.6-4.5-8.2-9.2
		c-0.9-6.4,0.6-12.1,5.9-16.3C234.4,112.1,237.7,111.3,240.1,111.3z M247,123.5c-0.1-0.9-0.1-1.9-0.4-2.8c-0.7-2.2-2.2-3.5-4.5-3.7
		c-3-0.3-5.5,0.8-6.8,3.4c-1.2,2.3-1.9,5-2.3,7.6c-0.4,3.1,1.3,5.5,3.8,6.4c2.6,0.9,5.4-0.1,7.3-2.5
		C246,129.4,246.9,126.6,247,123.5z"/>
	<path d="M403.5,139.9c-1.6,0-3.7,0.1-5.8,0c-0.4,0-0.9-0.6-1.1-1.1c-0.2-0.5-0.2-1.1-0.3-1.3c-2.4,1-4.7,2.3-7.1,2.9
		c-4,0.9-7.7-1.5-8.8-5.3c-1.3-4.3,0.3-9,4.1-10.3c3.4-1.2,7.1-1.5,10.6-2.1c0.6-0.1,1.2-0.3,1.8-0.3c1.6,0,1.9-1.1,2.1-2.3
		c0.2-1.4-0.3-2.3-1.5-2.9c-2.2-1.1-5.2-0.3-6.7,1.7c-0.3,0.4-0.9,0.8-1.4,0.8c-2.1-0.1-4.1-0.3-6.3-0.5c1.3-4,4-6.5,7.8-7.3
		c2.7-0.6,5.6-0.7,8.4-0.3c5.7,0.8,8,4.5,6.9,10.1c-0.6,3.1-1.4,6.1-1.9,9.2C403.9,133.8,403.8,136.7,403.5,139.9z M397.4,126.8
		c-2.7,0.6-5.3,1.1-7.8,1.8c-1.9,0.6-2.8,2.3-2.3,3.9c0.4,1.6,2,2.5,4,2.3C395,134.4,397,131.9,397.4,126.8z"/>
	<path d="M497.4,128.3c-6.4,0-12.6,0-18.8,0c-0.3,3.1,0.9,5.5,3.2,6.5c2.4,1,5.3,0.2,7-2.1c0.8-1.1,1.5-1.3,2.8-1
		c1.6,0.4,3.2,0.6,4.8,0.8c-2.4,5.8-8.1,8.9-14.8,8c-5.8-0.8-9.7-4.9-10.4-11.1c-1-8.5,4.3-16.3,12.3-17.8c5.7-1.1,10.7,0.8,12.9,5
		C498.3,120.2,498.2,124.1,497.4,128.3z M479.4,123.5c3.8,0,7.6,0,11.5,0c0.4-4.1-1.3-6.6-4.5-6.9
		C482.9,116.3,479.7,119.4,479.4,123.5z"/>
	<path d="M198.8,139.9c-2.6,0-5,0-7.6,0c0.8-3.9,1.6-7.7,2.4-11.5c0.5-2.6,1-5.1,1.5-7.7c0.5-2.8-1.3-4.5-4.1-3.7
		c-4,1.1-6,4.1-6.9,7.9c-1.1,4.6-2.1,9.2-3,13.7c-0.2,1.1-0.6,1.5-1.7,1.4c-2-0.1-4,0-6.2,0c1-4.9,2-9.7,3-14.5
		c0.8-4,1.8-8.1,2.5-12.1c0.2-1.2,0.7-1.6,1.8-1.5c1.8,0.1,3.6,0,5.6,0c-0.2,1.2-0.4,2.2-0.5,3.4c1.4-0.9,2.7-1.8,4.1-2.6
		c2.3-1.3,4.9-1.6,7.5-1.3c3.2,0.4,5.7,3,5.6,6.3c-0.1,2.7-0.6,5.3-1.1,8C200.9,130.3,199.8,135,198.8,139.9z"/>
	<path d="M330.9,107.6c0.5-2.4,0.9-4.3,1.3-6.3c10.1,0,20.2,0,30.5,0c-0.4,2.1-0.8,4.1-1.3,6.4c-3.2,0-6.4,0-9.6,0
		c-1.2,0-1.7,0.3-2,1.6c-1.9,9.6-4,19.2-6,28.8c-0.1,0.6-0.3,1.2-0.5,1.8c-2.6,0-5.2,0-7.9,0c2.2-10.7,4.5-21.4,6.7-32.2
		C338.3,107.6,334.7,107.6,330.9,107.6z"/>
	<path d="M436.1,130.6c-2.7,8.4-12,12.5-19.4,8.7c-3.9-2-5.4-5.4-5.7-9.5c-0.4-7.2,2.8-16.3,13-18.1c2.3-0.4,4.9-0.2,7.2,0.3
		c3.9,0.9,6.3,4.2,6.9,8.7c-2.3,0.3-4.6,0.5-6.8,0.7c-0.2-0.2-0.3-0.3-0.3-0.4c-0.7-4.9-6.2-5.1-8.7-2.2c-3.3,3.8-4.3,8.3-3.3,13.1
		c0.6,3,4.6,3.6,7.3,1.4c0.6-0.5,1.3-1.1,1.6-1.8c0.6-2.1,2-2.1,3.8-1.7C433,130.1,434.5,130.3,436.1,130.6z"/>
	<path d="M220.6,111.8c1.6,0,2.9,0,4.5,0c-0.3,1.8-0.6,3.4-1,4.9c-0.1,0.4-0.9,0.7-1.5,0.7c-3.4,0.2-3.3,0.2-4,3.5
		c-0.7,3.4-1.4,6.9-2.1,10.3c-0.6,3-0.1,3.6,3,3.5c0.5,0,1.1,0,1.7,0c-0.2,1.1-0.4,2-0.6,2.9c-0.6,2.8-0.6,2.9-3.6,3
		c-0.6,0-1.1,0-1.7,0c-5.5-0.3-7.6-2.9-6.6-8.3c0.8-4.2,1.7-8.5,2.6-12.7c0.1-0.6,0.2-1.2,0.3-2c-1.2-0.1-2.3-0.2-3.5-0.2
		c0.4-1.9,0.8-3.7,1.2-5.5c1.3,0,2.4,0,3.4,0c0.2-0.2,0.3-0.3,0.3-0.4c0.1-3.4,2.1-5.2,4.9-6.5c1.5-0.7,2.9-1.7,4.6-2.7
		C221.9,105.5,221.3,108.5,220.6,111.8z"/>
	<path d="M505.6,111.9c2.5,0,4.6,0,7,0c-0.3,1.6-0.6,3.1-1,5.1c3.2-4.1,6.4-7.2,12-5c-0.9,1.8-1.6,3.6-2.5,5.3
		c-0.2,0.3-0.7,0.7-1.1,0.7c-4.6,0-7.5,1.8-8.9,6.2c-1.5,4.9-2.5,9.9-3.7,14.9c0,0.2-0.1,0.4-0.2,0.7c-2.4,0-4.8,0-7.5,0
		C501.8,130.5,503.7,121.3,505.6,111.9z"/>
	<path d="M371.1,111.8c-0.3,1.8-0.6,3.2-1,5.2c3.2-4,6.4-7.1,12-4.9c-0.9,1.9-1.7,3.8-2.6,5.6c-0.1,0.2-0.6,0.4-0.9,0.4
		c-5,0.1-7.6,1.8-9.1,6.7c-1.3,4.5-2.3,9.1-3.3,13.7c-0.3,1.3-0.7,1.6-2,1.6c-1.9-0.1-3.9,0-6,0c1.3-6.3,2.6-12.5,3.9-18.7
		c0.6-2.7,1.2-5.4,1.7-8.1c0.2-1,0.6-1.4,1.6-1.3C367.2,111.9,369,111.8,371.1,111.8z"/>
	<path d="M324.7,122.3c-0.5,2.5-1,4.8-1.5,7.2c-4.9,0-9.6,0-14.7,0c0.5-2.2,0.9-4.4,1.4-6.6c0.1-0.3,0.6-0.6,1-0.6
		C315.4,122.3,320,122.3,324.7,122.3z"/>
	<path class="st0" d="M99.4,12.9c-1.4,5.4-2.7,10.5-3.9,15.7C86.4,64.7,77.3,100.9,68.3,137c-0.4,1.8-1.1,2.4-3,2.3
		c-5.3-0.1-10.5,0-15.8,0c-0.7,0-1.3,0-2.3,0c1.2-4.8,2.3-9.3,3.5-13.9C60,88.7,69.3,51.9,78.5,15.2c0.5-1.9,1.2-2.4,3.1-2.4
		C87.4,13,93.2,12.9,99.4,12.9z"/>
	<path class="st0" d="M79.9,140c1.9-9.2,3.8-18.2,5.7-27.1c0.1-0.4,0.7-1,1.2-1c2-0.1,4,0,6.2,0c-0.2,1.1-0.3,2.1-0.5,3.5
		c0.8-0.6,1.3-0.9,1.8-1.3c2.7-1.9,5.6-3,9-2.7c4.1,0.4,6.7,3.1,6.4,7.3c-0.2,3.1-0.9,6.2-1.5,9.2c-0.8,3.9-1.6,7.7-2.4,11.6
		c0,0.2-0.2,0.3-0.3,0.5c-2.4,0-4.8,0-7.5,0c0.9-4.1,1.7-8.2,2.5-12.2c0.5-2.4,1-4.8,1.3-7.2c0.4-2.8-1.2-4.3-4-3.6
		c-3.1,0.8-5.3,2.8-6.1,5.8c-1.4,4.9-2.5,9.8-3.4,14.8c-0.4,2-1.1,2.7-3.2,2.5C83.4,139.8,81.8,140,79.9,140z"/>
	<path class="st0" d="M114.8,111.9c2.6,0,4.9,0,7.4,0c1,6,1.9,12.1,2.9,18.3c0.4-0.5,0.7-0.9,0.9-1.3c3-5.3,6.1-10.5,9.1-15.8
		c0.6-1,1.2-1.4,2.3-1.4c2.1,0.1,4.2,0,6.6,0c-0.4,0.7-0.6,1.2-0.8,1.7c-5.1,8.4-10.3,16.7-15.4,25.1c-0.6,1.1-1.3,1.4-2.5,1.4
		c-5,0-5,0-5.9-4.9c-1.4-7.1-2.9-14.2-4.3-21.3C115,113.2,115,112.6,114.8,111.9z"/>
	<path class="st0" d="M152.3,123.5c0.7-4.5,3.8-7.3,7.3-6.8c3.1,0.4,4.6,2.8,4.3,6.8C160,123.5,156.2,123.5,152.3,123.5z"/>
	<path class="st0" d="M247,123.5c-0.1,3.1-1.1,5.9-2.9,8.4c-1.8,2.5-4.7,3.4-7.3,2.5c-2.5-0.9-4.2-3.4-3.8-6.4
		c0.4-2.6,1.1-5.3,2.3-7.6c1.3-2.6,3.8-3.7,6.8-3.4c2.3,0.3,3.8,1.5,4.5,3.7C246.9,121.6,246.9,122.6,247,123.5z"/>
	<path class="st0" d="M397.4,126.8c-0.5,5.1-2.4,7.6-6.2,8c-2,0.2-3.6-0.7-4-2.3c-0.4-1.6,0.4-3.3,2.3-3.9
		C392.1,127.9,394.8,127.4,397.4,126.8z"/>
	<path class="st0" d="M479.4,123.5c0.3-4.1,3.5-7.2,7-6.9c3.2,0.3,4.8,2.8,4.5,6.9C487,123.5,483.2,123.5,479.4,123.5z"/>
</g>
</svg>
